<?xml version="1.0" encoding="UTF-8" standalone="no"?>
<!-- Created with Inkscape (http://www.inkscape.org/) -->

<svg
   xmlns:dc="http://purl.org/dc/elements/1.1/"
   xmlns:cc="http://creativecommons.org/ns#"
   xmlns:rdf="http://www.w3.org/1999/02/22-rdf-syntax-ns#"
   xmlns:svg="http://www.w3.org/2000/svg"
   xmlns="http://www.w3.org/2000/svg"
   xmlns:xlink="http://www.w3.org/1999/xlink"
   xmlns:sodipodi="http://sodipodi.sourceforge.net/DTD/sodipodi-0.dtd"
   xmlns:inkscape="http://www.inkscape.org/namespaces/inkscape"
   width="81.340065mm"
   height="58.911404mm"
   viewBox="0 0 288.21283 208.74119"
   id="svg4254"
   version="1.1"
   inkscape:version="0.91 r13725"
   sodipodi:docname="bow.svg">
  <defs
     id="defs4256">
    <inkscape:path-effect
       effect="skeletal"
       id="path-effect4815-6"
       is_visible="true"
       pattern="#path4513"
       copytype="repeated"
       prop_scale="0.4"
       scale_y_rel="false"
       spacing="-8"
       normal_offset="0"
       tang_offset="0"
       prop_units="false"
       vertical_pattern="false"
       fuse_tolerance="1" />
    <inkscape:path-effect
       effect="skeletal"
       id="path-effect4815"
       is_visible="true"
       pattern="#path4513"
       copytype="repeated"
       prop_scale="0.4"
       scale_y_rel="false"
       spacing="-8"
       normal_offset="0"
       tang_offset="0"
       prop_units="false"
       vertical_pattern="false"
       fuse_tolerance="1" />
    <radialGradient
       inkscape:collect="always"
       xlink:href="#linearGradient5601"
       id="radialGradient4900-5"
       cx="-210.67268"
       cy="397.96729"
       fx="-210.67268"
       fy="397.96729"
       r="20.463762"
       gradientTransform="matrix(2.7865324,0,0,3.8764784,742.71079,-1381.604)"
       gradientUnits="userSpaceOnUse" />
    <linearGradient
       inkscape:collect="always"
       id="linearGradient5601">
      <stop
         style="stop-color:#ffffff;stop-opacity:1"
         offset="0"
         id="stop5603" />
      <stop
         id="stop5613"
         offset="0.84780902"
         style="stop-color:#fffff5;stop-opacity:1" />
      <stop
         style="stop-color:#ffffe8;stop-opacity:1"
         offset="1"
         id="stop5605" />
    </linearGradient>
    <radialGradient
       inkscape:collect="always"
       xlink:href="#linearGradient5601"
       id="radialGradient4892-6"
       cx="-198.1174"
       cy="379.83127"
       fx="-198.1174"
       fy="379.83127"
       r="43.627338"
       gradientTransform="matrix(2.7865324,0,0,0.79893314,739.12811,-208.71472)"
       gradientUnits="userSpaceOnUse" />
    <filter
       style="color-interpolation-filters:sRGB"
       inkscape:label="Drop Shadow"
       id="filter7466">
      <feFlood
         flood-opacity="0.235294"
         flood-color="rgb(0,0,0)"
         result="flood"
         id="feFlood7468" />
      <feComposite
         in="flood"
         in2="SourceGraphic"
         operator="in"
         result="composite1"
         id="feComposite7470" />
      <feGaussianBlur
         in="composite1"
         stdDeviation="3.1"
         result="blur"
         id="feGaussianBlur7472" />
      <feOffset
         dx="6"
         dy="6"
         result="offset"
         id="feOffset7474" />
      <feComposite
         in="SourceGraphic"
         in2="offset"
         operator="over"
         result="composite2"
         id="feComposite7476" />
    </filter>
    <filter
       style="color-interpolation-filters:sRGB"
       inkscape:label="Drop Shadow"
       id="filter7478">
      <feFlood
         flood-opacity="0.235294"
         flood-color="rgb(0,0,0)"
         result="flood"
         id="feFlood7480" />
      <feComposite
         in="flood"
         in2="SourceGraphic"
         operator="in"
         result="composite1"
         id="feComposite7482" />
      <feGaussianBlur
         in="composite1"
         stdDeviation="3.1"
         result="blur"
         id="feGaussianBlur7484" />
      <feOffset
         dx="6"
         dy="6"
         result="offset"
         id="feOffset7486" />
      <feComposite
         in="SourceGraphic"
         in2="offset"
         operator="over"
         result="composite2"
         id="feComposite7488" />
    </filter>
  </defs>
  <sodipodi:namedview
     id="base"
     pagecolor="#ffffff"
     bordercolor="#666666"
     borderopacity="1.0"
     inkscape:pageopacity="0.0"
     inkscape:pageshadow="2"
     inkscape:zoom="1.9738372"
     inkscape:cx="113.59938"
     inkscape:cy="96.843486"
     inkscape:document-units="px"
     inkscape:current-layer="layer1"
     showgrid="false"
     fit-margin-top="0"
     fit-margin-left="0"
     fit-margin-right="0"
     fit-margin-bottom="0"
     inkscape:window-width="1280"
     inkscape:window-height="687"
     inkscape:window-x="0"
     inkscape:window-y="1"
     inkscape:window-maximized="1" />
  <metadata
     id="metadata4259">
    <rdf:RDF>
      <cc:Work
         rdf:about="">
        <dc:format>image/svg+xml</dc:format>
        <dc:type
           rdf:resource="http://purl.org/dc/dcmitype/StillImage" />
        <dc:title></dc:title>
      </cc:Work>
    </rdf:RDF>
  </metadata>
  <g
     inkscape:label="Layer 1"
     inkscape:groupmode="layer"
     id="layer1"
     transform="translate(-10.29728,-46.865786)">
    <path
       inkscape:connector-curvature="0"
       style="fill:url(#radialGradient4892-6);fill-opacity:1;fill-rule:evenodd;stroke:#d3d3c3;stroke-width:0.83595973;stroke-linecap:square;stroke-linejoin:round;stroke-miterlimit:4;stroke-dasharray:none;stroke-opacity:1;filter:url(#filter7478)"
       d="m 185.64457,105.5633 c 0,0.002 -0.0752,-0.0357 -0.0697,-0.0334 -0.0362,-0.0167 -0.16719,-0.0783 -0.20342,-0.0956 0,0 0,0 0,0 -0.26472,-0.12456 -0.52693,-0.24856 -0.78747,-0.37222 l 0,0 c -1.03631,-0.49124 -2.02525,-0.96771 -2.98326,-1.43989 l 0,0 c -4.25504,-2.09661 -7.66101,-3.986691 -10.49743,-5.785147 l 0,0 c -13.76379,-8.726137 -12.01998,-13.506796 -18.5753,-18.872732 15.11387,5.574508 18.58004,9.283383 21.44683,13.331239 l 0,0 c 1.94137,2.741 3.65063,5.651729 8.26875,10.13961 l 0,0 c 0.76017,0.73857 1.58721,1.50896 2.5037,2.33093 l 0,0 c 0.21735,0.19506 0.44,0.3926 0.66626,0.59264 0.0279,0.0139 0.15605,0.13849 0.17277,0.15159 0.0279,0.0223 0.0362,0.0306 0.0613,0.0529 z m -16.93961,-9.010032 c -21.288,-9.160642 -25.12366,-14.985804 -29.2494,-20.567976 -1.35983,-1.841145 -2.67981,-3.535441 -4.66772,-5.054073 2.22811,0.738989 4.21602,1.455991 5.96708,2.13663 0,0 0,0 0,0 9.84287,3.821116 12.99667,6.788912 15.4973,10.019083 2.65417,3.428131 4.5727,7.018049 12.45274,13.466336 z M 151.5009,88.010595 c -6.07018,-2.411437 -10.73121,-4.559129 -14.46684,-6.588923 0,0 0,0 0,0 -15.34682,-8.327491 -12.66339,-12.567701 -20.38627,-17.813293 16.11619,4.401858 19.74844,8.43815 22.82198,12.345008 2.44073,3.10024 4.83073,6.49306 12.03113,12.057208 1.235,-0.820829 2.45745,-1.631375 3.66792,-2.432113 20.47572,-11.347786 27.3944,-9.172758 34.11969,-8.895693 1.63486,0.139884 3.23628,0.184747 5.0166,-0.05852 -1.48216,0.762312 -2.82471,1.445765 -4.10094,2.080732 -19.41517,10.906594 -17.19848,3.626694 -34.80323,7.420112 0,0 0,0 0,0 -1.2715,0.616075 -2.57086,1.244187 -3.90004,1.885591 z m -17.44062,-8.000379 c -13.19033,-4.741731 -19.95102,-8.456012 -24.42117,-11.953138 -13.142405,-10.281106 2.37078,0.274474 -9.51044,-9.07033 -0.662636,-0.521945 -1.383791,-1.015217 -2.196344,-1.469032 0.862432,0.159111 1.69059,0.324436 2.479454,0.491962 12.53271,2.650327 17.03268,5.953427 19.83343,8.891714 3.25021,3.410074 5.02439,6.765617 13.81507,13.108824 z m -17.67275,-7.301691 c -8.21665,-2.50682 -13.91622,-4.54411 -18.339562,-6.543447 0,0 0,0 0,0 -9.360799,-4.220593 -11.168144,-7.330781 -15.94844,-10.3783 -1.172573,-0.754231 -2.490881,-1.429408 -4.086171,-1.877928 1.54764,-0.04709 3.001652,-0.0028 4.300734,0.08081 9.826428,0.567366 15.16626,3.237923 17.775289,5.132264 0,0 0,0 0,0 7.27062,5.271394 3.16745,5.020969 16.29815,13.586519 z M 98.425543,66.611174 c -0.158833,-0.03483 -0.31878,-0.06966 -0.476776,-0.104216 -6.179414,-1.34531 -13.53168,-3.027846 -16.676561,-3.78974 -9.009138,-2.103497 -6.194183,-2.017533 -12.754516,-3.339547 -3.783275,-0.51746 -7.16919,-1.377523 -11.056961,-0.407447 3.551715,-2.212368 6.870196,-3.671675 9.487307,-4.591843 7.804242,-2.12005 12.905825,0.156045 15.143411,1.476249 8.308325,4.856424 2.429299,3.139892 15.89661,10.517181 0.1449,0.07914 0.290078,0.158833 0.437486,0.239363 z M 80.320606,62.749347 c -4.707568,-0.135147 -7.761051,-0.06353 -10.542567,0.642407 0,0 0,0 0,0 -8.876778,2.929231 -13.195067,3.878101 -17.716773,4.732062 -3.908112,0.738041 -7.712008,1.286514 -11.025473,4.033923 6.001355,-9.11628 13.671842,-12.269046 16.770745,-13.047603 3.871887,-0.972751 6.967725,-0.307327 10.667404,0.128737 3.638375,0.658179 5.888779,1.491743 11.846664,3.510558 z m -16.60634,2.818522 c -9.433527,5.160156 -14.340332,9.409089 -17.809286,12.533126 -5.086258,4.406979 -10.506064,9.275497 -11.275425,14.946787 -1.461815,-9.583637 2.510387,-16.367946 4.954733,-19.165486 3.244638,-3.582059 6.518257,-4.563978 9.635829,-5.290259 0.417423,-0.09725 10.402126,-2.185311 14.494149,-3.024168 z m -14.277078,9.803132 c -0.915097,1.195729 -1.689475,2.368218 -2.351555,3.518109 -3.915635,6.487098 -4.747972,13.572497 -5.0113,16.92751 -0.492101,5.91224 -0.784687,12.44348 2.476392,16.86398 -6.574545,-4.96462 -8.960653,-11.28356 -9.594589,-15.119304 0,0 0,-2.8e-5 0,-2.8e-5 -0.838746,-5.390714 0.903394,-8.845708 2.586181,-11.16714 1.462372,-2.017366 4.776674,-5.545339 8.309718,-8.328466 0,0 0,0 0,0 1.048015,-0.858559 2.235635,-1.771343 3.585153,-2.694661 z m -6.29617,14.607081 c 0.06966,1.99786 0.382034,3.792387 0.83791,5.371738 1.696441,6.27343 5.864815,11.66732 7.84381,14.11733 3.80919,4.56793 8.022427,9.48443 13.101161,10.17112 -8.080665,1.35684 -14.071152,-1.61825 -17.072248,-3.9996 0,0 0,0 0,0 -4.042423,-3.09232 -5.297755,-6.53244 -5.781497,-9.23211 -0.433028,-2.4179 -0.5587,-6.633259 -0.122608,-10.558536 0,0 0,0 0,0 0.183911,-1.728681 0.530835,-3.722779 1.194865,-5.869942 z m 5.371599,14.527418 c 1.45234,1.37546 2.941463,2.47001 4.362873,3.32578 5.98798,3.412 13.399878,4.05789 16.253844,4.24035 -3.967186,-1.60384 15.752825,6.16551 10.275338,4.06377 1.768334,0.64829 3.575957,1.14421 5.691214,1.24369 -1.909332,0.54292 -3.677944,0.9691 -5.329522,1.29816 -3.923716,0.85786 -7.095069,0.96013 -9.987211,0.46357 -5.089044,1.10226 -8.419786,-0.47137 -10.56876,-2.0174 -1.883696,-1.35506 -4.98845,-4.40514 -7.458154,-7.5466 0,0 0,0 0,0 -1.052752,-1.38044 -2.206098,-3.08201 -3.239622,-5.07132 z m 14.371541,6.53147 c 2.257648,-0.11035 4.299062,-0.50303 6.054577,-1.03626 2.895486,0.1998 7.073055,-0.13459 9.559757,-0.23658 5.949804,-0.25413 9.476161,-0.10198 13.031776,0.5263 0,0 0,0 0,0 4.871974,0.86184 8.299408,2.4998 12.707982,2.32605 -4.558768,1.76307 -8.25984,2.89856 -11.265951,3.59483 0,0 0,0 0,0 -6.70997,1.55566 -10.319644,0.98258 -13.568741,-0.0836 -0.03901,-0.0139 -8.274608,-3.06496 -10.261406,-3.91413 -1.751614,-0.15493 -3.903375,-0.48494 -6.257994,-1.17642 z m 17.776962,-1.6048 c 4.515576,-1.0846 6.332952,-1.60058 10.06384,-2.44874 0,0 0,-3e-5 0,-3e-5 9.89358,-2.25135 15.28107,-2.413 19.99337,-1.81342 4.42362,0.56288 7.62284,1.78463 11.57219,1.59693 0.19227,-0.0139 0.38761,-0.0315 0.58517,-0.0527 -0.17276,0.0819 -0.34692,0.16301 -0.51829,0.24298 -19.49403,8.45849 -22.07213,4.98051 -30.78617,3.50139 -3.036763,-0.51484 -5.896581,-0.75398 -10.91011,-1.02642 z m 18.342628,-4.27629 c 9.332102,-3.30834 15.385842,-5.00386 20.693072,-5.778071 0,0 0,0 0,0 10.84964,-1.884421 14.87395,1.347961 21.45156,0.629171 -9.6584,4.54709 -14.98207,6.17167 -18.92808,6.5598 8.91969,-0.64402 -25.282487,-1.29016 -23.216552,-1.4109 z m 18.234512,-5.618403 c 0.75181,-0.307578 1.4855,-0.602978 2.20331,-0.887009 25.2719,-10.821332 30.21019,-4.744657 39.03653,-5.270085 0,0 0,0 0,0 0.29705,-0.04458 0.59855,-0.09781 0.90507,-0.160783 -0.26194,0.156603 -0.52136,0.310754 -0.77717,0.462063 -24.05251,11.198827 -20.37596,3.599503 -38.9351,5.622052 0,0 0,0 0,0 -0.77215,0.06353 -1.58108,0.140998 -2.43264,0.23379 z m 18.03862,-6.534976 c 8.71878,-3.887909 15.13449,-5.863533 20.16307,-6.784956 2.8e-4,-8.3e-5 2.8e-4,-8.3e-5 2.8e-4,-8.3e-5 10.81592,-3.094445 14.95002,-0.109511 21.38914,-1.437879 -9.42712,5.634898 -14.54904,7.716299 -18.43013,8.41452 0,8.4e-5 0,8.4e-5 0,8.4e-5 -6.67792,0.583249 -9.5748,-2.107956 -23.12236,-0.191714 z m 35.42936,-14.808519 c 6.42547,-3.668052 11.57192,-6.058563 15.82361,-7.603054 0,0 0,0 0,0 13.27504,-4.108101 19.51966,-0.08025 25.56142,-0.366067 -14.06642,5.787154 -17.29824,6.69509 -22.81697,6.426636 -4.29767,-0.01393 -8.48332,-0.914039 -18.56806,1.542485 z m 17.40942,-8.328528 c 13.52862,-6.729141 22.31706,-7.752663 27.92914,-7.27859 0.55842,0.04737 15.20527,3.312825 14.0692,3.199775 -6.76347,1.764711 -7.71173,2.281251 -12.2992,3.315222 0,0 0,2.8e-5 0,2.8e-5 -6.29394,1.407115 -8.94755,1.016861 -12.80774,0.411236 -3.54669,-0.556387 -8.21441,-1.312122 -16.8914,0.352329 z m 18.49951,-6.925843 c 3.15046,-1.26372 6.05709,-2.234102 8.71906,-2.967573 0,0 0,0 0,0 8.5566,-2.340771 14.6332,-2.266788 18.90941,-1.34035 4.20683,0.911419 6.83397,2.684796 8.99381,4.183951 1.45959,1.333718 2.63662,2.468003 4.25058,3.642304 -1.66551,-0.44735 -3.24854,-0.781177 -4.63902,-1.038596 -9.85931,-0.05462 -10.25862,0.776411 -15.42931,-0.212056 -2.92642,-0.559312 -6.44469,-2.002095 -11.32948,-2.453653 0,0 0,0 0,0 -2.45522,-0.226545 -5.54074,-0.253017 -9.47505,0.185862 z m 19.41739,-5.095425 c 7.29124,-1.822922 13.33245,-1.998919 18.14256,-1.31477 0,0 0,0 0,0 8.04639,2.530283 11.8096,7.232362 13.46397,10.342968 1.5011,2.822702 2.40254,6.867994 3.2059,9.184244 -3.63587,-4.089794 -9.37501,-7.277643 -11.18096,-8.419731 -3.0532,-1.931151 -4.25866,-2.9688 -6.4263,-4.823766 -2.80214,-1.792827 -7.15693,-4.80727 -17.20517,-4.968945 z m 20.75382,-0.62658 c 12.53549,2.825879 18.87931,10.572634 21.08235,15.775508 1.90292,4.76079 1.30939,8.643818 0.5573,11.211747 -0.15326,0.527936 -2.63355,7.0679 -2.7216,7.346748 -0.53808,-6.45163 -3.39762,-12.436428 -4.19457,-14.340382 -0.38705,-1.02327 -2.83112,-7.932533 -3.21064,-8.76735 -1.21103,-2.661891 -4.06528,-7.475124 -11.51284,-11.226271 z m 18.64023,11.088477 c 1.33781,1.261965 2.51317,2.59298 3.53527,3.961947 6.6665,9.415966 5.30556,18.680769 3.59407,22.978438 -1.5886,4.101023 -4.23971,6.399352 -6.32626,7.742412 -1.85583,1.19467 -4.59555,2.37579 -6.23125,3.14385 3.1421,-3.69665 4.63484,-9.968796 5.18658,-11.869044 1.69086,-6.285805 1.01847,-3.314832 2.76089,-8.699248 0.76825,-2.374126 1.93943,-6.714228 -0.11425,-12.54644 0,0 0,0 0,0 -0.54894,-1.464407 -1.32639,-3.055377 -2.40449,-4.711915 z m 8.78538,20.023598 c 0.3511,2.519165 0.355,4.926562 0.10867,7.152249 -0.9307,9.88007 -6.8518,15.57638 -11.26734,17.66857 -4.11292,1.89542 -7.68944,1.21601 -9.832,0.25942 -2.01857,-0.89216 -6.20672,-3.91104 -8.27823,-5.07748 3.13011,0.70474 5.76951,0.80573 7.89592,0.5555 2.27046,-0.26751 4.42557,-1.21961 5.71657,-1.83087 1.63792,-0.7292 5.50451,-2.76981 6.79245,-3.5677 1.98206,-1.22803 5.0896,-3.520008 7.09395,-8.257894 0,0 0,-2.8e-5 0,-2.8e-5 0.78636,-1.813531 1.47826,-4.122814 1.76861,-6.901767 z m -5.91553,21.320489 c -1.26843,1.82275 -2.7439,3.38937 -4.35619,4.70032 -3.29702,2.57096 -7.00088,3.70653 -10.31045,3.8774 0,0 0,0 0,0 -4.4186,0.17416 -7.8413,-1.73712 -10.10647,-3.51869 -5.42148,1.54845 -9.71079,-1.46758 -12.465,-2.93032 -1.50528,-0.86681 -2.88545,-1.64977 -4.6262,-2.30917 1.7087,0.008 3.24464,-0.0412 4.64682,-0.12512 6.44525,-0.4 9.81306,-0.96001 12.44438,-1.56121 1.94333,1.01608 8.49251,5.01674 9.68989,5.51466 1.95503,0.82657 5.49922,1.59234 9.79689,-0.20787 1.67888,-0.72255 3.49821,-1.82794 5.28633,-3.44003 z m -20.55347,7.78969 c -1.56742,-0.33073 -2.98103,-0.88509 -4.21964,-1.56023 -4.85526,2.68755 -9.42266,2.82838 -12.51989,2.43389 -8.25622,-0.82765 -12.91725,-4.31263 -15.51708,-6.61071 -2.62241,-2.31831 -4.21073,-4.32292 -7.12182,-6.08175 2.48921,0.49982 6.56284,1.28418 8.15646,1.60165 0,0 0,0 0,0 8.54935,1.69814 10.91289,2.66086 14.53705,4.57403 2.30893,1.12378 6.96912,4.18384 12.46528,2.87515 1.16338,0.97252 2.57253,1.97127 4.21964,2.76797 z m -18.98408,0.82565 c -5.71072,0.0814 -10.69165,-0.86892 -14.34869,-1.90217 0,0 0,0 0,0 -8.8843,-2.50284 -13.53586,-6.19976 -16.2753,-9.05018 -2.98884,-3.11019 -4.30547,-5.6825 -7.49522,-8.070108 19.3834,6.009518 18.40282,6.880148 24.87259,12.347408 2.19858,1.85747 6.27694,4.94517 13.24662,6.67505 z m -19.97275,-3.58145 c -17.40385,-3.62096 -25.08409,-10.5191 -28.29529,-14.31408 -2.73999,-3.593706 -4.02263,-6.646547 -7.09339,-9.374228 3.92455,1.616495 7.0268,3.033475 9.52854,4.325116 0,0 0,0 0,0 7.33583,3.220563 9.57759,5.447202 12.16963,8.426812 2.25932,2.59704 5.46216,6.71886 13.69051,10.93638 z m -18.80909,-6.42457 c -4.37486,-1.41687 -8.10965,-2.94793 -11.1662,-4.40556 0,0 0,0 0,0 -17.50722,-9.687383 -16.38676,-16.325962 -22.45276,-21.731361 19.55588,8.05985 18.79321,11.201804 24.20243,18.103401 1.88453,2.16581 4.70534,4.91004 9.41653,8.03352 z"
       id="path4813-6" />
    <path
       inkscape:connector-curvature="0"
       style="fill:url(#radialGradient4900-5);fill-opacity:1;fill-rule:evenodd;stroke:#d3d3c3;stroke-width:0.83595973;stroke-linecap:butt;stroke-linejoin:miter;stroke-miterlimit:4;stroke-dasharray:none;stroke-opacity:1;filter:url(#filter7466)"
       d="m 200.67373,239.92058 c 1.47491,-16.37051 1.63068,-21.19857 4.11571,-28.11661 1.86196,-5.18312 4.4487,-8.48594 5.16093,-13.07096 2.51568,14.12806 1.10988,19.98212 -0.7557,23.86746 -3.78579,7.88594 -3.08609,3.64083 -8.52094,17.32011 z m 1.57104,-18.61236 c -0.61136,-11.60686 -0.77159,-17.60746 0.0502,-23.49847 0.99117,-7.14146 4.91071,-14.43582 5.2646,-18.54983 2.12445,8.525 2.58061,14.13847 2.33233,17.84211 -0.28339,4.28886 -1.52591,6.75854 -2.93617,9.86808 -1.57439,3.47083 -2.91639,6.76662 -4.71119,14.33811 z m -0.63867,-18.9166 c -0.22849,-1.5669 -0.43553,-3.04072 -0.62112,-4.45982 -1.75384,-13.24899 -1.47853,-19.71825 -0.25357,-25.13466 1.12325,-4.97148 3.02868,-8.31902 3.10865,-12.79665 4.04661,12.53321 3.94796,18.58643 3.00667,22.55002 -1.33447,5.61862 -2.75671,5.86147 -4.50498,15.25498 0,0 0,0 0,0 -0.25637,1.37819 -0.50019,2.88673 -0.73481,4.58613 z m -2.11191,-18.90857 c -4.42947,-20.28331 -3.76907,-26.57577 -2.10328,-33.38673 0.76045,-3.10737 1.61006,-5.75463 1.44594,-9.06478 1.19458,2.99878 2.11024,5.65309 2.79294,7.92286 0,0 0,0 0,0 2.72606,9.02419 2.1721,13.15536 1.14526,16.94543 -1.17452,4.3361 -2.60764,7.57985 -3.28086,17.58322 z m -3.4149,-18.71968 c -1.54931,-5.32328 -2.67256,-9.59397 -3.48038,-13.37616 0,0 0,-3e-5 0,-3e-5 -4.8912,-22.75736 1.76583,-15.15985 -0.27308,-28.98322 4.34699,8.48465 5.88014,14.36482 6.23849,18.00381 0.37953,3.85366 -0.35974,6.41457 -1.07198,9.66135 -0.75682,3.45129 -1.42113,7.31028 -1.41277,14.69425 z m -4.67468,-18.45693 c -4.56295,-12.49626 -6.39593,-19.42358 -7.01454,-25.11449 -0.66598,-6.12457 0.1644,-8.35143 -0.0641,-12.77435 -0.0641,-1.25729 -0.24243,-2.54762 -0.64787,-3.91904 0.76407,1.09603 1.45624,2.15455 2.0768,3.15336 6.43494,10.32764 6.86853,15.98388 6.53999,19.86466 -0.42327,5.0028 -1.63263,7.8542 -0.88946,18.78986 z m -5.9891,-17.97926 c -3.37728,-7.20723 -5.63827,-12.12816 -7.35366,-16.55387 0,0 0,0 0,0 -3.35247,-8.62117 -3.3887,-12.360252 -4.41526,-17.217484 -0.53529,-2.116706 -1.46794,-4.257961 -3.42743,-6.351678 2.22727,1.455127 4.14803,3.007839 5.694,4.402972 0,0 0,2.8e-5 0,2.8e-5 6.6495,7.058649 8.04945,12.699012 8.33702,15.850572 0.75543,8.23039 -1.05247,5.54013 1.16533,19.86946 z m -7.81121,-17.03814 c -3.68741,-5.76155 -6.0738,-9.24187 -8.59255,-12.748334 -2.56834,-4.717906 -4.06304,-7.172395 -6.76681,-9.778248 -3.74009,0.07301 -7.68609,0.05489 -11.636,2.272389 4.15444,-4.004805 8.24841,-6.493763 11.636,-7.978065 0,0 0,2.7e-5 0,2.7e-5 8.23894,3.604436 10.57935,8.567529 11.41809,11.484973 1.53455,6.280198 0.77243,5.782778 3.94127,16.747258 z m -9.97021,-14.786041 c -2.06259,-2.330935 -3.68435,-3.856979 -5.38915,-4.833603 0,0 0,0 0,0 4.2868,-2.003127 -21.76198,12.856534 -14.43898,8.987984 -3.43997,1.81732 -7.16055,3.02052 -10.12765,5.14113 -0.37228,0.27879 -0.74233,0.58043 -1.11015,0.90983 0.23128,-0.41082 0.46367,-0.81155 0.69329,-1.20231 6.04872,-9.487024 11.48274,-13.46948 14.92299,-15.084248 3.19978,-1.501774 6.60631,-1.727149 10.0605,-1.818937 2.05534,1.951381 3.77714,4.271782 5.38915,7.900154 z m -11.55575,-0.906097 c 3.67962,-3.758726 -17.89009,20.896818 -12.07739,14.636988 0,0 0,0 0,0 -4.13159,4.18439 -16.67823,12.48503 -17.57884,13.5156 4.34867,-10.55246 8.39889,-15.43633 11.40974,-17.84334 2.50983,-1.91783 4.93439,-2.89111 7.66659,-4.23302 5.0882,-2.498989 3.77045,-2.15998 10.5799,-6.076228 z M 145.23539,109.236 c -0.25358,0.45699 -0.50074,0.89947 -0.74735,1.3396 -8.01908,12.9977 -10.99009,17.54571 -15.91612,22.05624 -3.94015,3.60753 -7.65962,5.35051 -10.34388,9.06456 4.07892,-13.35816 8.01769,-18.07999 11.31833,-20.6572 6.35943,-4.96591 4.61366,-1.98034 14.56214,-10.72971 0,0 0,0 0,0 0.36894,-0.34411 0.74373,-0.70115 1.12688,-1.07349 z m -9.81891,15.91774 c -5.04334,11.1668 -7.76579,16.70378 -11.30663,21.5711 -4.31662,5.95234 -10.09561,9.41937 -12.5876,13.46152 1.80065,-7.94037 3.80278,-13.03744 5.56554,-16.22228 2.2791,-4.13805 4.5752,-5.87462 7.29514,-8.02173 3.05209,-2.40918 5.79125,-4.68081 11.03355,-10.78861 z m -8.09515,17.08481 c -0.61388,1.80442 -1.19097,3.46976 -1.75858,5.05753 -4.32414,12.17773 -7.47794,17.70178 -10.93798,21.89317 -3.18361,3.85665 -6.35274,6.03884 -8.37019,10 1.8341,-12.82203 4.70116,-18.35868 7.23579,-21.43743 4.48242,-5.44542 4.13884,-2.91098 10.54006,-11.05816 0,0 0,-3e-5 0,-3e-5 1.01346,-1.2861 2.09046,-2.74083 3.2909,-4.45508 z m -6.67236,17.81121 c -3.92956,15.23559 -6.57343,21.78503 -9.98498,26.99035 -3.01893,4.60672 -6.31149,7.20544 -8.05029,11.53296 0.76574,-14.26942 3.62277,-19.79246 6.21871,-23.05898 3.4631,-4.35746 5.81493,-5.33888 11.81656,-15.46433 z m -5.30862,18.27539 c -2.72328,15.51736 -4.69865,22.12467 -7.64234,27.65666 -2.57114,4.83235 -5.60762,7.75721 -6.912,12.21875 -0.61777,-14.24804 1.79147,-20.06693 4.06973,-23.51159 3.15993,-4.77801 5.2281,-5.66833 10.48461,-16.36382 z m -3.77157,18.59436 c -1.36512,15.70113 -2.60206,22.27927 -5.00155,28.14272 -2.06147,5.03789 -4.78726,8.30089 -5.60957,12.87225 -2.11971,-14.1076 -0.23406,-20.20754 1.68307,-23.81354 2.7857,-5.24144 4.55431,-5.93601 8.92805,-17.20143 z"
       id="path4813-9-7" />
  </g>
</svg>
